<svg xmlns="http://www.w3.org/2000/svg" x="0px" y="0px"
width="64" height="64"
viewBox="0 0 172 172"
style=" fill:#000000;"><g fill="none" fill-rule="nonzero" stroke="none" stroke-width="1" stroke-linecap="butt" stroke-linejoin="miter" stroke-miterlimit="10" stroke-dasharray="" stroke-dashoffset="0" font-family="none" font-weight="none" font-size="none" text-anchor="none" style="mix-blend-mode: normal"><path d="M0,172v-172h172v172z" fill="none"></path><g fill="#083954"><path d="M97.40037,86l27.45315,-27.45281c7.94156,-7.9419 7.94156,-20.86373 0,-28.8053c-7.9597,-7.9597 -20.84459,-7.96138 -28.80563,0l-53.8827,53.8827c-1.31184,1.31184 -1.31184,3.43899 0,4.75116l53.88236,53.88303c7.96138,7.96071 20.84559,7.9597 28.80563,-0.00034c7.94156,-7.94156 7.94156,-20.8634 0,-28.8053zM120.10236,137.50728c-5.33435,5.33435 -13.96895,5.33469 -19.30364,0l-51.50728,-51.50728l51.50728,-51.50695c5.33435,-5.33435 13.96828,-5.33536 19.30364,0c5.32192,5.32192 5.32192,13.98138 0,19.3033l-29.82856,29.82823c-1.3115,1.31217 -1.31116,3.43899 0,4.75116l29.82856,29.82823c5.32159,5.32159 5.32159,13.98138 0,19.3033z"></path></g><path d="" fill="none"></path><path d="M86,172c-47.49649,0 -86,-38.50351 -86,-86v0c0,-47.49649 38.50351,-86 86,-86v0c47.49649,0 86,38.50351 86,86v0c0,47.49649 -38.50351,86 -86,86z" fill="none"></path><path d="M86,168.56c-45.59663,0 -82.56,-36.96337 -82.56,-82.56v0c0,-45.59663 36.96337,-82.56 82.56,-82.56v0c45.59663,0 82.56,36.96337 82.56,82.56v0c0,45.59663 -36.96337,82.56 -82.56,82.56z" fill="none"></path><path d="M86,172c-47.49649,0 -86,-38.50351 -86,-86v0c0,-47.49649 38.50351,-86 86,-86v0c47.49649,0 86,38.50351 86,86v0c0,47.49649 -38.50351,86 -86,86z" fill="none"></path><path d="M86,168.56c-45.59663,0 -82.56,-36.96337 -82.56,-82.56v0c0,-45.59663 36.96337,-82.56 82.56,-82.56v0c45.59663,0 82.56,36.96337 82.56,82.56v0c0,45.59663 -36.96337,82.56 -82.56,82.56z" fill="none"></path></g></svg>