<?xml version="1.0" encoding="utf-8"?>
<!-- Generator: Adobe Illustrator 25.0.0, SVG Export Plug-In . SVG Version: 6.00 Build 0)  -->
<svg version="1.1" id="Camada_1" xmlns="http://www.w3.org/2000/svg" xmlns:xlink="http://www.w3.org/1999/xlink" x="0px" y="0px"
	 viewBox="0 0 1000 1000" style="enable-background:new 0 0 1000 1000;" xml:space="preserve">
<style type="text/css">
	.st0{fill:#DBB99C;}
</style>
<g>
	<path class="st0" d="M414.5,535.9l5.9,5.8l412.4-412.4l-37.7-37.7L382.6,504l4.5,4.5l-40.9,147.6l136.5-30.6l1.5,1.5l2.4-2.4
		l2.5-0.6l-0.9-1L904,207.4l-37.7-37.7L453.8,582.3L414.5,535.9L414.5,535.9z M42,183.7H10v810.7h32h778.7v-32l0,0v-608L778,375.7
		v576H52.7l0,0V226.4h576l21.3-42.7H42L42,183.7z M864.3,18.2c16.7-16.7,43.7-16.9,60.6,0l52.5,52.5c16.7,16.7,16.8,43.8,0.1,60.6
		l-45.2,45.2L819.1,63.3L864.3,18.2z"/>
</g>
</svg>
